<?xml version="1.0" standalone="no"?>
<!DOCTYPE svg PUBLIC "-//W3C//DTD SVG 20010904//EN"
 "http://www.w3.org/TR/2001/REC-SVG-20010904/DTD/svg10.dtd">
<svg version="1.0" xmlns="http://www.w3.org/2000/svg"
 width="578.000000pt" height="599.000000pt" viewBox="0 0 578.000000 599.000000"
 preserveAspectRatio="xMidYMid meet">

<g transform="translate(0.000000,599.000000) scale(0.100000,-0.100000)"
fill="#000000" stroke="none">
<path d="M1730 4849 c-95 -23 -420 -59 -835 -93 -562 -46 -775 -86 -852 -158
-36 -34 -32 -92 9 -126 18 -15 71 -61 118 -102 47 -41 102 -88 121 -105 l36
-30 17 -210 c26 -331 9 -285 146 -399 l117 -98 42 -256 c23 -141 43 -258 45
-260 7 -6 77 112 126 213 27 55 81 181 120 280 159 404 208 479 531 810 264
270 338 375 355 498 l7 47 -34 -1 c-19 -1 -50 -5 -69 -10z"/>
<path d="M2913 4462 c-12 -50 8 -193 51 -365 60 -236 71 -345 56 -540 -6 -84
-18 -199 -25 -257 -46 -329 -57 -592 -31 -704 17 -73 55 -114 111 -122 64 -9
93 -24 125 -64 68 -86 123 -267 163 -540 13 -85 26 -146 29 -135 7 20 13 120
23 320 12 263 26 544 35 720 6 105 17 323 25 485 9 162 25 462 36 665 11 204
21 402 22 440 l2 70 -85 6 c-89 7 -307 25 -448 37 -82 8 -83 8 -89 -16z"/>
<path d="M3995 4363 l-60 -24 0 -370 0 -369 84 0 c82 0 83 0 76 23 -4 12 -9
146 -12 297 l-5 275 54 35 c45 29 63 35 123 38 84 5 111 -11 125 -73 14 -55 6
-532 -8 -567 l-12 -28 91 0 90 0 -8 48 c-4 26 -8 162 -8 302 l0 254 64 34 c57
29 72 32 129 30 58 -3 67 -6 86 -31 20 -27 21 -40 21 -285 0 -141 -3 -278 -7
-304 l-8 -48 90 0 90 0 -11 28 c-6 16 -13 149 -16 322 -2 162 -9 309 -14 327
-13 42 -68 89 -121 104 -85 23 -219 -5 -298 -61 -27 -19 -27 -19 -46 1 -40 45
-94 64 -180 64 -74 0 -88 -3 -152 -36 l-71 -36 -6 38 c-4 22 -10 39 -13 38 -4
0 -34 -12 -67 -26z"/>
<path d="M5335 4376 c-61 -15 -104 -37 -129 -65 -17 -19 -17 -25 -6 -66 14
-49 20 -54 41 -29 33 40 91 59 185 59 127 0 134 -7 134 -131 l0 -93 -37 -6
c-116 -18 -154 -28 -212 -58 -88 -44 -124 -94 -129 -181 -7 -102 22 -162 95
-200 74 -38 187 -29 259 21 37 25 64 25 64 0 0 -8 8 -21 18 -31 18 -15 22 -15
75 9 32 13 57 27 57 31 0 3 -10 20 -22 37 -22 31 -23 42 -28 312 -5 272 -6
281 -29 318 -35 57 -89 80 -196 84 -51 1 -112 -3 -140 -11z m225 -520 c0 -87
-2 -97 -26 -125 -64 -77 -206 -55 -228 35 -9 36 10 97 39 124 31 29 118 59
173 60 l42 0 0 -94z"/>
<path d="M571 2575 c-7 -41 -30 -128 -52 -193 -149 -443 -154 -585 -23 -780
64 -94 248 -272 338 -326 171 -102 335 -146 550 -146 200 0 339 20 830 120
453 92 619 92 894 0 276 -92 370 -105 615 -89 231 16 417 65 425 112 12 64
-95 96 -455 137 -180 21 -197 24 -398 91 -283 95 -319 102 -500 101 -178 0
-310 -18 -640 -88 -456 -95 -607 -118 -815 -118 -209 -1 -287 20 -417 111
-124 87 -220 241 -269 429 -25 97 -26 103 -18 309 11 312 10 342 -13 373 -32
43 -39 37 -52 -43z"/>
</g>
</svg>
